<?xml version="1.0" encoding="UTF-8"?>
<svg id="_Слой_1" data-name="Слой 1" xmlns="http://www.w3.org/2000/svg" viewBox="0 0 423 532">
  <defs>
    <style>
      .cls-1 {
        fill: #fff;
      }

      .cls-1, .cls-2 {
        fill-rule: evenodd;
      }

      .cls-2 {
        fill: #1166af;
      }
    </style>
  </defs>
  <path class="cls-2" d="M211.44,337.18l-17.46-8.41c-66.72-32.11-109.83-100.71-109.83-174.76V31.41l1.48-.71c79.95-38.49,171.66-38.49,251.61,0l1.48.71v122.61c0,74.04-43.11,142.64-109.82,174.76l-17.46,8.41h0Z"/>
  <path class="cls-1" d="M85.59,32.31v121.71c0,73.5,42.79,141.59,109.01,173.46l16.84,8.1,16.84-8.1c66.22-31.88,109.01-99.97,109.01-173.46V32.31l-.67-.32c-79.56-38.29-170.81-38.29-250.36,0l-.67.32h0ZM211.44,338.77l-18.08-8.71c-67.21-32.35-110.64-101.46-110.64-176.05V30.51l2.29-1.1c80.35-38.68,172.51-38.68,252.85,0l2.29,1.1v123.51c0,74.59-43.43,143.7-110.64,176.05l-18.08,8.71h0Z"/>
  <path class="cls-1" d="M211.44,12.91c-38.88,0-78.24,8.37-113.84,24.19l-1.56.69-1.7.76v115.46c0,70.15,40.85,135.14,104.06,165.57l11.79,5.66,1.24.6,1.24-.6,11.79-5.66c63.22-30.44,104.06-95.43,104.06-165.57V38.55l-1.7-.76-1.55-.69c-35.62-15.83-74.99-24.19-113.84-24.19ZM211.44,15.78c38.45,0,77.42,8.28,112.68,23.95l1.55.69v113.6c0,69.05-40.21,133.03-102.43,162.98l-11.79,5.67-11.79-5.67c-62.23-29.96-102.44-93.93-102.44-162.98V40.42l1.55-.69c35.23-15.67,74.2-23.95,112.67-23.95h0Z"/>
  <path class="cls-1" d="M253.88,163.3h-84.95v46.97c0,20.94,17.04,37.98,37.99,37.98h8.98c20.94,0,37.98-17.04,37.98-37.98v-46.97h0ZM251.01,166.18v44.1c0,19.36-15.75,35.11-35.11,35.11h-8.98c-19.36,0-35.11-15.75-35.11-35.11v-44.1h79.21Z"/>
  <path class="cls-1" d="M211.37,197.35l-2.09-2.09,2.09-2.09,2.09,2.09-2.09,2.09ZM211.37,190.2c-2.8,0-5.06,2.27-5.06,5.06s2.27,5.06,5.06,5.06,5.07-2.27,5.07-5.06-2.27-5.06-5.07-5.06Z"/>
  <path class="cls-1" d="M211.37,191.06c1.52,0,3.47.29,4.52.76.11.05.24.08.38.08h15.22c.3,0,.55-.12.61-.29l.87-2.43c.08-.23-.22-.44-.61-.44h-41.98c-.39,0-.69.21-.61.44l.87,2.43c.06.17.32.29.61.29h15.22c.14,0,.27-.03.38-.08,1.04-.47,3-.76,4.52-.76Z"/>
  <path class="cls-1" d="M192.61,217.52l3.97-14.83,3.97,14.83c.02.07.09.13.17.13h2.45c.12,0,.2-.11.17-.22l-5.02-18.74c-.22-.81-.22-1.66,0-2.47l.94-3.53c.03-.11-.05-.22-.17-.22h-2.45c-.08,0-.15.06-.17.13l-6.65,24.84c-.03.11.05.22.17.22h2.45c.08,0,.15-.06.17-.13h0Z"/>
  <path class="cls-1" d="M203.32,220.16c-.35.91-.86,1.76-1.54,2.46-1.34,1.42-3.27,2.24-5.21,2.23v-.09c1.92-.31,3.56-1.28,4.69-2.63.51-.63.92-1.33,1.18-2.08h-1.03c-1.93,0-3.85-.03-5.78-.16-1.92-.1-3.85-.3-5.78-.6v-.09l11.56-.05h1.45s.36,0,.36,0c.04,0,.16,0,.23.06.07.05.11.15.09.24-.07.25-.13.47-.22.7h0ZM205.05,218.51h-16.94c-.14,0-.25.14-.22.28,1,3.87,4.51,6.74,8.69,6.74s7.69-2.86,8.69-6.74c.04-.14-.07-.28-.22-.28h0Z"/>
  <path class="cls-1" d="M230.2,217.52l-3.97-14.83-3.97,14.83c-.02.07-.09.13-.17.13h-2.45c-.12,0-.2-.11-.17-.22l5.02-18.74c.22-.81.22-1.66,0-2.47l-.95-3.53c-.03-.11.06-.22.17-.22h2.45c.08,0,.15.06.17.13l6.65,24.84c.03.11-.05.22-.17.22h-2.45c-.08,0-.15-.06-.17-.13h0Z"/>
  <path class="cls-1" d="M232.96,220.16c-.35.91-.86,1.76-1.54,2.46-1.34,1.42-3.27,2.24-5.21,2.23v-.09c1.92-.31,3.57-1.28,4.69-2.63.51-.63.92-1.33,1.18-2.08h-1.03c-1.93,0-3.86-.03-5.78-.16-1.93-.1-3.85-.3-5.78-.6v-.09l11.56-.05h1.44s.36,0,.36,0c.04,0,.16,0,.22.06.07.05.11.15.09.24-.08.25-.13.47-.22.7h0ZM234.69,218.51h-16.94c-.14,0-.26.14-.22.28,1,3.87,4.5,6.74,8.69,6.74s7.69-2.86,8.69-6.74c.04-.14-.07-.28-.22-.28h0Z"/>
  <path class="cls-1" d="M214.81,181.54c.13.35.32.69.39,1.06-.77,1.68-1.62,3.32-2.41,4.99.21,0,.41,0,.62,0,0,.24,0,.48,0,.72-.78.16-1.56.33-2.29.65-.65.27-1.18.74-1.7,1.21,0-.86,0-1.73,0-2.59.13,0,.4,0,.53,0-.79-1.66-1.63-3.3-2.4-4.97.05-.38.25-.72.39-1.07.91-2.23,1.84-4.44,2.74-6.67-.29-.4-.05-.77.35-.94,0,1.78-.04,3.56-.14,5.33-.46.24-.92.65-.87,1.22-.05.73.66,1.34,1.36,1.32.77.03,1.51-.69,1.37-1.48-.03-.5-.46-.82-.86-1.06-.07-1.78-.13-3.56-.14-5.33.4.14.64.55.35.94.89,2.23,1.81,4.44,2.72,6.66h0Z"/>
  <path class="cls-1" d="M210.53,223.37c1.54-.1,3.1.16,4.57.59.07.02.15.04.22.06.75.25,1.47.57,2.15.96.25.15.5.3.74.47.88.6,1.67,1.32,2.35,2.15-3.83.3-7.64.67-11.46,1.11,4.14.09,8.29.11,12.44.06.12.26.23.51.35.77-7.01,0-14.02,0-21.02,0,1.08-2.04,2.78-3.75,4.82-4.83,1.42-.75,2.97-1.17,4.57-1.32.09,0,.18-.02.27-.02h0Z"/>
  <path class="cls-1" d="M213.78,223.91h-4.81l-1.93-5.69,2.41-17,1.92-3.4,1.93,3.4,2.41,17-1.93,5.69h0Z"/>
  <path class="cls-1" d="M213.47,190.32h-4.05v-2.73h4.05v2.73Z"/>
  <path class="cls-1" d="M180.65,144.24c3.08,6.07,7.05,11.16,11.63,14.96-.07.45-.14.91-.21,1.36-13.92-5.73-24.77-17.44-29.28-31.93,3.87,6.28,10.09,11.67,17.86,15.62h0ZM174.82,126.65c.93,5.12,2.39,9.95,4.3,14.36-9.23-5.3-15.74-12.83-17.85-21.39,2.84,2.81,7.61,5.17,13.56,7.03ZM173.67,114.64c.05,3.29.3,6.51.75,9.63-8.01-2.71-12.91-6.18-13.77-9.63h13.01ZM174.43,102.85c-.46,3.12-.71,6.34-.75,9.63h-13.01c.86-3.45,5.76-6.93,13.77-9.63ZM179.12,86.11c-1.91,4.41-3.37,9.24-4.3,14.36-5.95,1.86-10.71,4.22-13.56,7.03,2.12-8.57,8.62-16.09,17.85-21.39h0ZM196.26,65.03c-6.28,3.87-11.67,10.09-15.62,17.86-7.77,3.94-13.98,9.33-17.86,15.62,4.95-15.93,17.55-28.52,33.47-33.47ZM198.24,77.06c-5.13.93-9.96,2.39-14.37,4.3,5.3-9.23,12.83-15.74,21.39-17.85-2.81,2.84-5.17,7.61-7.03,13.56h0ZM210.25,62.89v13.02c-3.29.05-6.51.3-9.63.75,2.71-8.01,6.18-12.92,9.63-13.77ZM210.25,95.65c-4.62.03-9.25.27-13.75.71.76-6.66,1.94-12.52,3.39-17.4,3.34-.54,6.8-.85,10.36-.9v17.58ZM210.25,112.49h-14.68c.03-4.95.28-9.62.71-13.98,4.36-.43,9.03-.67,13.98-.71v14.69h0ZM210.25,116.43c-2.3-.04-4.63-.06-6.88-.07-2.75-.01-5.43-.03-7.77-.09-.01-.54-.03-1.08-.03-1.62h14.68v1.79ZM177.14,99.79c1.09-5.55,2.83-10.71,5.09-15.32,4.61-2.26,9.77-3.99,15.32-5.09-1.43,5.14-2.51,11.01-3.21,17.21-6.19.7-12.07,1.78-17.21,3.21ZM193.41,112.49h-9.16c-1.6-2.16-2.07-4.56-2.1-4.73l-.6-3.36-1.44,3.1c-.83,1.8-1.44,3.46-1.87,4.99h-2.41c.05-3.56.36-7.02.9-10.36,4.88-1.46,10.74-2.64,17.4-3.4-.44,4.5-.68,9.13-.71,13.75h0ZM189.21,115.76c-1.05-.22-1.95-.62-2.72-1.12h6.92c0,.51.02,1.03.03,1.54-1.76-.08-3.22-.21-4.23-.42ZM180.01,125.89c-1.14-.28-2.24-.58-3.29-.89-.54-3.34-.85-6.8-.9-10.36h1.9c-.93,5.1.34,8.62,2.28,11.25h0ZM184.85,130.56c6.49,5.2,11.51,11.52,10.52,13.28-.27.49-.6,1.62-.95,3.2-4.36-1.08-8.46-2.56-12.19-4.39-2.26-4.61-3.99-9.77-5.09-15.32,1.73.48,3.54.91,5.41,1.31.78.71,1.57,1.34,2.29,1.91ZM192.66,156.75c-3.33-2.95-6.3-6.66-8.78-10.98,3.16,1.37,6.56,2.49,10.11,3.37-.42,2.16-.88,4.79-1.33,7.61ZM212.4,114.64h14.68c0,1.24-.04,2.45-.07,3.66-.16-.06-.3-.12-.46-.18-2.96-1.09-8.32-1.49-14.15-1.64v-1.83h0ZM212.4,97.8c4.94.03,9.62.28,13.98.71.43,4.36.67,9.03.7,13.98h-14.68v-14.69h0ZM212.4,78.06c3.55.05,7.02.36,10.36.9,1.46,4.88,2.63,10.74,3.4,17.4-4.5-.44-9.13-.68-13.75-.71v-17.58ZM212.4,62.89c3.45.86,6.93,5.76,9.63,13.77-3.12-.46-6.34-.71-9.63-.75v-13.02ZM238.78,81.35c-4.41-1.91-9.24-3.37-14.37-4.3-1.86-5.95-4.22-10.71-7.03-13.56,8.57,2.12,16.09,8.62,21.39,17.85h0ZM259.86,98.5c-3.87-6.28-10.09-11.67-17.86-15.62-3.94-7.77-9.33-13.99-15.62-17.86,15.93,4.95,28.52,17.55,33.47,33.47ZM247.83,100.48c-.93-5.13-2.39-9.96-4.3-14.36,9.23,5.3,15.74,12.83,17.86,21.39-2.84-2.8-7.61-5.17-13.56-7.03h0ZM248.98,112.49c-.05-3.29-.3-6.51-.76-9.63,8.01,2.71,12.92,6.18,13.77,9.63h-13.01ZM248.22,124.27c.46-3.12.71-6.34.76-9.63h13.01c-.86,3.45-5.76,6.93-13.77,9.63h0ZM251,135.72c-.11-.22-.23-.45-.35-.69-.82-1.63-2.2-2.93-3.78-3.96.36-1.45.69-2.92.96-4.42,5.95-1.86,10.71-4.22,13.56-7.03-1.49,6.02-5.15,11.52-10.39,16.1h0ZM226.39,162.1c6.29-3.87,11.68-10.09,15.62-17.86,2.27-1.15,4.39-2.43,6.37-3.82.49.11.91.22,1.27.31,1.43.36,2.29.57,2.87-.17.55-.69.29-1.36-.52-2.92,3.18-2.71,5.85-5.74,7.86-9.01-4.95,15.93-17.55,28.52-33.47,33.47h0ZM221.78,162.1c-.11-.47-.23-.95-.34-1.42-.18-.77-.33-1.48-.46-2.18,1.28-2.4,2.43-5.24,3.43-8.44,5.12-.93,9.96-2.39,14.37-4.3-4.37,7.61-10.26,13.36-17,16.33h0ZM220.77,150.62c.42-.05.85-.1,1.26-.16-.49,1.46-1.01,2.79-1.55,4.04-.07-1.49.03-2.77.28-3.87h0ZM223.4,145.85c-.21.79-.42,1.57-.64,2.31-.39.06-.78.11-1.17.17.48-.93,1.09-1.73,1.82-2.48ZM226.09,143.76c2.43-1.43,5.46-2.38,7.64-3.06,1.17-.36,2.09-.65,2.72-.94.88-.4,2.94-.49,5.4-.31-.45,1.09-.92,2.17-1.43,3.21-4.61,2.26-9.77,3.99-15.32,5.09.35-1.28.68-2.62.99-3.99ZM244.08,139.67c.45.06.9.12,1.35.19-.62.39-1.25.78-1.89,1.15.19-.44.36-.89.54-1.34ZM228.3,96.58c-.7-6.19-1.78-12.07-3.21-17.21,5.55,1.09,10.71,2.83,15.32,5.09,2.26,4.61,4,9.78,5.09,15.32-5.14-1.43-11.01-2.51-17.21-3.21ZM229.24,112.49c-.03-4.62-.27-9.26-.71-13.75,6.66.76,12.52,1.94,17.4,3.4.54,3.34.85,6.8.9,10.36h-17.59ZM245.93,125c-2.51.75-5.31,1.42-8.31,2-.82-2.06-2.95-5.2-8.48-7.8.06-1.51.1-3.03.11-4.55h17.59c-.05,3.55-.36,7.02-.9,10.36ZM244.93,129.96c-1.33-.65-2.68-1.15-3.89-1.53,1.54-.34,3.04-.71,4.47-1.1-.17.89-.37,1.76-.58,2.63ZM191.74,162.76c-.13.9-.26,1.8-.39,2.69h2.18c1.43-9.89,2.96-19.2,3.72-20.56,2.75-4.89-10.49-15.56-11.05-16.01-5-4-8.84-8.16-5.24-17.84,1.1,2.52,3.37,5.91,7.82,6.82,2.81.58,8.26.61,14.58.65,8.59.05,18.32.1,22.45,1.62,8.39,3.09,9.86,7.39,10.11,8.64l.15.74.74.11c.1.01,9.5,1.52,11.92,6.35.42.85.79,1.55,1.09,2.12.09.18.18.35.27.51-.38-.09-.82-.2-1.32-.32-3.69-.84-10.54-1.72-13.21-.51-.51.23-1.42.52-2.47.84-3.06.96-7.68,2.4-10.53,5.03-4.36,4.02-5.26,8.93-3.21,17.52.34,1.41.68,2.84,1.03,4.27h2.21s-.02-.1-.04-.15c23.83-5.17,41.74-26.4,41.74-51.75,0-29.21-23.76-52.97-52.97-52.97s-52.97,23.76-52.97,52.97c0,22.29,13.85,41.39,33.38,49.2h0Z"/>
  <path class="cls-1" d="M177.16,230.25c-34.63-13.67-59.21-47.46-59.21-86.89s24.66-73.35,59.39-86.97c-19.75,11.67-33.03,33.18-33.03,57.74,0,21.86,10.52,41.3,26.76,53.54v-2.21h1.83c-15.61-11.71-25.72-30.36-25.72-51.33,0-35.36,28.76-64.13,64.11-64.14h.03v-2.87c-53.07,0-96.24,43.17-96.24,96.24,0,42.32,27.46,78.35,65.49,91.2-1.25-1.35-2.39-2.79-3.42-4.31h0Z"/>
  <path class="cls-1" d="M211.33,47.12v2.87h.03c35.35.02,64.11,28.78,64.11,64.14,0,20.97-10.11,39.62-25.72,51.33h1.97v2.1c16.16-12.25,26.62-31.64,26.62-53.43,0-24.56-13.27-46.07-33.03-57.74,34.73,13.62,59.39,47.47,59.39,86.97s-24.48,73.09-59.01,86.81c-1.02,1.52-2.16,2.97-3.39,4.32,37.92-12.92,65.27-48.89,65.27-91.13,0-53.07-43.17-96.24-96.24-96.24h0Z"/>
  <path class="cls-1" d="M234.66,287.93c-1.72,0-3.69-.24-5.91-.85-9.9-2.74-11.71-9.95-11.71-9.95,0,0-.11,8.59,6.18,13.84,0,0-7.34,7.82-11.76,8.84h-.05s-.06,0-.06,0c-4.42-1.02-11.76-8.84-11.76-8.84,6.28-5.25,6.17-13.84,6.17-13.84,0,0-1.81,7.21-11.71,9.95-2.22.61-4.19.85-5.91.85-5.94,0-8.88-2.84-8.88-2.84,0,0,3.3-.58,12.99-6.46,9.68-5.88,9.18-13.43,9.18-13.43,0,0-3.86,8.2-14.5,10.03-1.89.32-3.52.46-4.91.46-6.49,0-8.07-2.86-8.07-2.86,0,0,17.45-6.63,22.78-13.43,5.32-6.79,4.68-12.21,4.68-12.21h20.02s-.64,5.42,4.68,12.21c5.32,6.8,22.78,13.43,22.78,13.43,0,0-1.58,2.86-8.07,2.86-1.4,0-3.03-.13-4.92-.46-10.64-1.83-14.5-10.03-14.5-10.03,0,0-.51,7.54,9.18,13.43,9.69,5.89,12.98,6.46,12.98,6.46,0,0-2.94,2.84-8.88,2.84h0ZM242.06,279.96c7.61-.39,10.13-4.24,10.58-5.05l2.41-4.35-4.65-1.76c-6.32-2.4-17.58-7.8-20.91-12.05-3.82-4.87-3.81-8.59-3.79-9.1l.5-3.06c-3.26.98-6.72,1.51-10.31,1.51h-8.98c-3.58,0-7.04-.54-10.31-1.51l.51,3.06c.02.51.02,4.23-3.79,9.1-3.33,4.25-14.6,9.65-20.92,12.05l-4.64,1.77,2.41,4.35c.45.8,2.97,4.66,10.58,5.05-1.35.6-2.07.83-2.3.9l-9.08.99,6.9,6.35c.43.42,4.42,4.05,11.88,4.05,1.94,0,3.96-.25,6.03-.74l2.28,2.43c1.93,2.05,8.61,8.83,13.89,10.08h.02s1.04.27,1.04.27l1.04-.26h.02c5.28-1.25,11.96-8.03,13.89-10.09l2.28-2.43c2.06.49,4.09.74,6.03.74,7.46,0,11.45-3.63,11.87-4.05l6.62-6.39-8.8-.95c-.23-.07-.95-.3-2.3-.9h0Z"/>
  <path class="cls-1" d="M145.03,257.1l-.26-1.62,1.19-.24v-9.07l-1.16-.13v-1.64h8.37l.35,3.75h-1.43l-.76-1.82h-2.97v3.27h2.79v1.93h-2.79v3.64h3.1l.68-1.82h1.45l-.39,3.75h-8.19Z"/>
  <path class="cls-1" d="M158.66,257.17c-.71,0-1.39-.09-2.04-.27-.65-.18-1.22-.36-1.71-.56l.37-3.55,1.54.13.15,2.04c.16.04.38.09.65.17.28.07.59.11.93.11.39,0,.75-.05,1.07-.16.32-.1.59-.27.79-.49.2-.22.3-.51.3-.86,0-.33-.09-.6-.26-.82-.17-.22-.43-.42-.76-.61-.34-.19-.77-.4-1.29-.63-.48-.22-.92-.45-1.32-.67-.4-.23-.76-.48-1.06-.76-.3-.28-.53-.62-.71-1-.17-.38-.25-.85-.25-1.4,0-.71.19-1.32.58-1.84.39-.51.91-.91,1.56-1.19.66-.28,1.38-.42,2.16-.42.64,0,1.26.05,1.86.15.61.1,1.15.21,1.63.35l.27,3.49h-1.54l-.9-1.95c-.16-.02-.35-.05-.59-.07-.23-.02-.45-.04-.66-.04-.43,0-.78.07-1.06.19-.28.13-.48.3-.62.51-.13.21-.2.44-.2.7s.08.46.23.65c.15.19.35.36.61.52.25.15.52.29.81.42.29.13.57.26.84.39.72.35,1.32.69,1.79,1.03.47.34.82.73,1.06,1.16.23.43.35.94.35,1.52,0,.69-.13,1.27-.4,1.75-.26.48-.62.87-1.06,1.17-.44.3-.93.52-1.48.65-.55.13-1.1.2-1.65.2h0Z"/>
  <path class="cls-1" d="M166.48,257.1l-.18-1.47,2.11-.4v-8.89h-2.07l-.79,1.84h-1.42l.35-3.77h10.19l.4,3.75h-1.4l-.81-1.82h-2.1v8.89l2.13.4-.18,1.47h-6.25Z"/>
  <path class="cls-1" d="M176.82,257.17c-.33,0-.62-.12-.86-.36-.25-.24-.37-.53-.37-.88s.12-.63.37-.86c.24-.23.53-.35.86-.35s.63.12.87.35c.24.23.36.52.36.86s-.12.64-.36.88c-.24.24-.53.36-.87.36Z"/>
  <path class="cls-1" d="M244.1,257.1l-.28-1.49c.21-.25.53-.59.96-1.04.43-.45.89-.95,1.4-1.51.5-.56.98-1.14,1.45-1.74.47-.61.85-1.2,1.15-1.77.3-.58.45-1.1.45-1.56,0-.39-.07-.7-.21-.94-.14-.23-.33-.4-.56-.51-.23-.11-.5-.17-.81-.17-.25,0-.46.01-.64.04-.18.03-.33.08-.47.14l-.81,1.91-2.35-1.19c.44-.8,1.06-1.47,1.86-2.01.8-.55,1.72-.82,2.77-.82.43,0,.86.06,1.3.19.43.13.84.33,1.21.61.37.28.67.63.9,1.07.23.44.34.97.34,1.6,0,.57-.13,1.14-.39,1.73-.26.59-.59,1.16-.99,1.72-.4.56-.83,1.09-1.29,1.58-.45.5-.88.93-1.28,1.31-.4.38-.72.69-.95.92h3.43l.75-2.02h1.43l-.4,3.95h-7.99Z"/>
  <path class="cls-1" d="M258.41,255.24c.48,0,.86-.15,1.15-.43.29-.29.51-.66.67-1.11.16-.45.27-.94.32-1.45.06-.51.08-.99.08-1.45s-.03-.94-.08-1.45c-.06-.51-.16-1-.32-1.45-.16-.45-.38-.82-.67-1.11-.29-.29-.67-.43-1.15-.43s-.84.14-1.13.43-.51.66-.66,1.11c-.15.45-.26.94-.32,1.45-.05.52-.08,1-.08,1.45s.03.94.08,1.45c.06.52.16,1,.32,1.45.15.45.37.82.66,1.11.29.29.67.43,1.13.43ZM258.41,257.17c-.87,0-1.61-.18-2.21-.54-.6-.36-1.09-.85-1.46-1.46-.37-.61-.64-1.3-.81-2.06-.17-.76-.25-1.53-.25-2.32s.08-1.57.25-2.33c.17-.76.43-1.44.81-2.05.37-.6.86-1.09,1.46-1.45.6-.36,1.34-.54,2.21-.54s1.61.18,2.21.54c.6.36,1.1.85,1.47,1.45.37.61.65,1.29.82,2.05.17.76.26,1.54.26,2.33s-.09,1.56-.26,2.32c-.17.76-.44,1.44-.82,2.06-.37.61-.86,1.1-1.47,1.46-.61.36-1.35.54-2.21.54Z"/>
  <path class="cls-1" d="M264.82,257.1l-.27-1.49c.21-.25.52-.59.95-1.04.43-.45.89-.95,1.39-1.51.5-.56.99-1.14,1.45-1.74.46-.61.85-1.2,1.15-1.77.3-.58.45-1.1.45-1.56,0-.39-.07-.7-.21-.94-.14-.23-.33-.4-.56-.51-.23-.11-.5-.17-.81-.17-.25,0-.46.01-.64.04-.18.03-.33.08-.47.14l-.81,1.91-2.35-1.19c.44-.8,1.06-1.47,1.86-2.01.8-.55,1.73-.82,2.77-.82.43,0,.86.06,1.3.19.43.13.84.33,1.21.61.38.28.67.63.9,1.07.23.44.34.97.34,1.6,0,.57-.13,1.14-.39,1.73-.26.59-.59,1.16-.99,1.72-.4.56-.83,1.09-1.29,1.58-.45.5-.88.93-1.28,1.31-.4.38-.71.69-.95.92h3.44l.75-2.02h1.43l-.4,3.95h-7.99Z"/>
  <path class="cls-1" d="M279.13,255.24c.48,0,.86-.15,1.15-.43.29-.29.51-.66.67-1.11.16-.45.27-.94.32-1.45.06-.51.08-.99.08-1.45s-.03-.94-.08-1.45c-.05-.51-.16-1-.32-1.45-.16-.45-.38-.82-.67-1.11-.29-.29-.67-.43-1.15-.43s-.84.14-1.13.43c-.29.29-.51.66-.66,1.11-.15.45-.26.94-.31,1.45-.05.52-.08,1-.08,1.45s.03.94.08,1.45c.06.52.16,1,.31,1.45.15.45.37.82.66,1.11.29.29.66.43,1.13.43ZM279.13,257.17c-.87,0-1.6-.18-2.21-.54-.6-.36-1.08-.85-1.46-1.46-.37-.61-.64-1.3-.81-2.06-.17-.76-.25-1.53-.25-2.32s.08-1.57.25-2.33c.17-.76.43-1.44.81-2.05.37-.6.86-1.09,1.46-1.45.6-.36,1.34-.54,2.21-.54s1.61.18,2.21.54c.61.36,1.1.85,1.47,1.45.37.61.65,1.29.82,2.05.17.76.26,1.54.26,2.33s-.09,1.56-.26,2.32c-.17.76-.44,1.44-.82,2.06-.37.61-.86,1.1-1.47,1.46-.61.36-1.34.54-2.21.54Z"/>
  <path class="cls-2" d="M203.61,364.78l-1.91-1.83c18.12-18.96,52.79-33.96,61.08-36.94,61.49-22.09,99.5-85.16,90.37-149.97l2.62-.37c9.31,66.04-29.43,130.32-92.1,152.84-7.67,2.76-42.48,17.87-60.06,36.27h0Z"/>
  <path class="cls-2" d="M299.38,335.74c-2.14,1.4-5.07,2.15-8.24,2.43-3.17.28-6.57.07-9.88-.79-6.79-2.04-11.29-5.92-12.88-9.74,2.07-.82,4.65-1.17,7.57-1.08,2.86-.03,6,.27,9.3,1.1,3.28.81,6.33,2.06,8.74,3.39,2.41,1.33,4.29,2.92,5.39,4.68h0Z"/>
  <path class="cls-2" d="M275.49,295.72c-1.48,1.08-3.02,2.53-4.37,4.58-1.35,2.04-2.52,4.65-3.45,7.64-2,5.65-2.45,11.57-.99,15.44,1.98-.85,4-2.38,5.78-4.41,1.72-2.16,3.12-4.92,4.05-7.91.91-3.02,1.25-5.86.99-8.53-.25-2.68-.98-5.01-2.02-6.8h0Z"/>
  <path class="cls-2" d="M324.37,317.33c-.96.84-2.09,1.62-3.35,2.32-1.25.71-2.64,1.31-4.21,1.7-3.08.84-6.51,1.22-9.93.99-3.39-.18-6.49-1.15-8.97-2.43-2.47-1.28-4.33-2.89-5.48-4.61,3.9-2.16,9.73-3.6,16.6-3.14,3.47.29,6.47.67,9.13,1.57,2.63.86,4.8,2.09,6.21,3.61h0Z"/>
  <path class="cls-2" d="M293.34,282.57c-.67.62-1.28,1.4-1.83,2.33-.54.94-1.03,1.99-1.54,3.08-.97,2.22-1.67,4.96-2.03,8.05-.32,3.15-.4,6.04-.09,8.67.32,2.64,1.02,4.98,2.11,6.74,3.72-2.19,6.61-7.78,7.35-13.92.42-3.03-.02-6.14-.73-8.67-.74-2.57-1.88-4.7-3.24-6.27h0Z"/>
  <path class="cls-2" d="M345.47,294.6c-1.61,1.98-3.93,3.86-6.68,5.35-2.72,1.52-6.19,2.39-9.59,2.81-3.45.39-6.57.12-9.18-.61-2.66-.78-4.83-2.04-6.27-3.52,1.74-1.39,3.8-2.9,6.51-3.93,2.63-1.1,5.89-1.79,9.18-2.31,6.58-1.03,12.71-.25,16.04,2.2h0Z"/>
  <path class="cls-2" d="M308.44,266.3c-1.12,1.44-1.9,3.47-2.31,5.94-.39,2.49-.74,5.15-.5,8.26.19,3.07.76,6.04,1.63,8.62.81,2.53,1.92,4.67,3.33,6.2,1.65-1.39,2.75-3.78,3.61-6.36.78-2.65,1.29-5.54.96-8.73-.66-6.4-3.44-11.38-6.7-13.93h0Z"/>
  <path class="cls-2" d="M361.96,268.34c-1.23,2.24-3.23,4.48-5.69,6.45-2.46,1.97-5.38,3.66-8.81,4.61-6.73,2-12.57,1.21-15.97-1.15,1.26-1.83,3.2-3.56,5.67-5.08,1.21-.78,2.64-1.44,4.02-2.15,1.39-.7,2.88-1.34,4.48-1.89,6.35-2.2,12.59-2.55,16.31-.79h0Z"/>
  <path class="cls-2" d="M320.27,247.51c-.85,1.62-1.3,3.71-1.29,6.19.01,2.48.5,5.35,1.14,8.26,1.45,5.89,4.31,11.15,7.63,13.61,1.17-1.81,2-4.22,2.36-6.92.16-1.36.29-2.74.11-4.25-.16-1.5-.46-3.03-.9-4.56-1.76-6.11-5.37-10.44-9.06-12.34Z"/>
  <path class="cls-2" d="M373.05,239.34c-.35,1.23-.82,2.51-1.54,3.77-.76,1.24-1.68,2.48-2.74,3.67-2.11,2.38-4.74,4.56-7.72,6.23-6.29,3.21-12.26,3.49-16.03,1.82.94-2.01,2.57-4.05,4.75-5.99,1.99-2.02,4.53-3.94,7.49-5.62,6.04-3.3,11.74-4.93,15.78-3.88h0Z"/>
  <path class="cls-2" d="M328.17,226.79c-.22.88-.26,1.88-.25,2.95-.04,1.05.05,2.18.26,3.39.42,2.41,1.35,5.1,2.75,7.91,2.48,5.49,6.2,10.07,9.93,11.87.85-1.98,1.27-4.48,1.16-7.17-.3-2.77-1.13-5.73-2.52-8.53-2.67-5.6-7.38-9.27-11.33-10.42h0Z"/>
  <path class="cls-2" d="M378.48,208.76c-.29,2.54-1.01,5.4-2.69,8.13-1.66,2.73-3.89,5.37-6.54,7.57-1.33,1.1-2.67,2.02-4.01,2.76-1.41.73-2.8,1.28-4.14,1.66-2.68.77-5.14.89-7.16.43,1.37-4.24,4.52-9.32,9.87-13.72,1.36-1.1,2.64-2.09,3.88-2.96,1.27-.87,2.54-1.61,3.8-2.2,2.51-1.19,4.92-1.8,6.98-1.67h0Z"/>
  <path class="cls-2" d="M332.03,204.99c-.17,1.81.49,3.95,1.31,6.23.82,2.27,2.19,4.73,4.06,7.22.93,1.24,1.93,2.41,2.96,3.49.96,1.06,1.95,2.02,2.97,2.86,2.04,1.69,4.16,2.91,6.16,3.43,1.22-4.15-.63-10.21-4.27-15.15-.89-1.24-1.96-2.35-3.1-3.32-1.12-.97-2.27-1.79-3.42-2.46-2.3-1.35-4.61-2.11-6.67-2.3h0Z"/>
  <path class="cls-2" d="M378.05,177.75c.22,2.54-.15,5.5-1.09,8.47-1.01,2.99-2.85,6-5.04,8.66-2.23,2.66-4.66,4.62-7.05,5.89-2.47,1.27-4.9,1.85-6.97,1.78.31-2.21.75-4.72,1.99-7.33,1.16-2.61,2.97-5.36,5.08-8.01,4.01-5.28,8.97-8.93,13.08-9.47h0Z"/>
  <path class="cls-2" d="M352.06,152.42c1.94,1.65,3.75,4.02,5.18,6.79,1.38,2.83,2.2,6.27,2.51,9.7.29,3.46-.06,6.56-.87,9.15-.86,2.64-2.19,4.76-3.7,6.17-1.34-1.79-2.79-3.88-3.74-6.62-1.01-2.67-1.65-5.9-2.02-9.27-.86-6.57.1-12.66,2.64-15.93h0Z"/>
  <path class="cls-2" d="M331.72,182.81c.2,1.82,1.05,3.82,2.47,5.89,1.35,2.08,3.01,4.24,5.31,6.33,2.26,2.09,4.73,3.84,7.14,5.11,2.33,1.27,4.61,2.06,6.68,2.19.24-2.14-.62-4.63-1.78-7.09-1.25-2.46-2.95-4.9-5.3-6.98-4.92-4.18-10.4-5.86-14.51-5.46Z"/>
  <path class="cls-2" d="M197.52,362.71l6.92,7.06s22.78-28.93,58.79-42.51c0,0-39.6,8.18-65.71,35.45Z"/>
  <path class="cls-2" d="M219.26,364.78c-17.59-18.4-52.39-33.52-60.06-36.27-62.67-22.52-101.4-86.79-92.1-152.84l2.62.37c-9.13,64.81,28.87,127.88,90.37,149.97,8.29,2.98,42.96,17.97,61.08,36.94l-1.92,1.83h0Z"/>
  <path class="cls-2" d="M123.5,335.74c2.14,1.4,5.07,2.15,8.24,2.43,3.17.28,6.57.07,9.88-.79,6.79-2.04,11.29-5.92,12.88-9.74-2.07-.82-4.65-1.17-7.57-1.08-2.86-.03-6,.27-9.31,1.1-3.28.81-6.32,2.06-8.74,3.39-2.41,1.33-4.29,2.92-5.39,4.68h0Z"/>
  <path class="cls-2" d="M147.38,295.72c1.48,1.08,3.02,2.53,4.37,4.58,1.35,2.04,2.52,4.65,3.45,7.64,2,5.65,2.45,11.57.99,15.44-1.98-.85-4-2.38-5.78-4.41-1.72-2.16-3.12-4.92-4.05-7.91-.91-3.02-1.25-5.86-1-8.53.26-2.68.98-5.01,2.02-6.8Z"/>
  <path class="cls-2" d="M98.5,317.33c.96.84,2.09,1.62,3.35,2.32,1.25.71,2.64,1.31,4.21,1.7,3.08.84,6.51,1.22,9.94.99,3.39-.18,6.49-1.15,8.97-2.43,2.47-1.28,4.33-2.89,5.48-4.61-3.9-2.16-9.73-3.6-16.6-3.14-3.47.29-6.47.67-9.13,1.57-2.63.86-4.8,2.09-6.21,3.61h0Z"/>
  <path class="cls-2" d="M129.54,282.57c.67.62,1.28,1.4,1.83,2.33.54.94,1.03,1.99,1.54,3.08.97,2.22,1.67,4.96,2.03,8.05.32,3.15.4,6.04.09,8.67-.31,2.64-1.02,4.98-2.11,6.74-3.72-2.19-6.61-7.78-7.35-13.92-.42-3.03.02-6.14.73-8.67.74-2.57,1.88-4.7,3.24-6.27Z"/>
  <path class="cls-2" d="M77.41,294.6c1.61,1.98,3.93,3.86,6.68,5.35,2.72,1.52,6.19,2.39,9.59,2.81,3.45.39,6.57.12,9.18-.61,2.66-.78,4.83-2.04,6.27-3.52-1.75-1.39-3.8-2.9-6.51-3.93-2.63-1.1-5.89-1.79-9.18-2.31-6.58-1.03-12.7-.25-16.04,2.2h0Z"/>
  <path class="cls-2" d="M114.43,266.3c1.12,1.44,1.9,3.47,2.31,5.94.39,2.49.74,5.15.5,8.26-.19,3.07-.76,6.04-1.63,8.62-.82,2.53-1.92,4.67-3.33,6.2-1.65-1.39-2.75-3.78-3.6-6.36-.79-2.65-1.29-5.54-.96-8.73.66-6.4,3.44-11.38,6.7-13.93h0Z"/>
  <path class="cls-2" d="M60.91,268.34c1.23,2.24,3.22,4.48,5.69,6.45,2.46,1.97,5.38,3.66,8.81,4.61,6.73,2,12.57,1.21,15.97-1.15-1.26-1.83-3.2-3.56-5.66-5.08-1.21-.78-2.65-1.44-4.02-2.15-1.39-.7-2.89-1.34-4.48-1.89-6.35-2.2-12.59-2.55-16.31-.79h0Z"/>
  <path class="cls-2" d="M102.6,247.51c.85,1.62,1.3,3.71,1.29,6.19-.01,2.48-.5,5.35-1.14,8.26-1.45,5.89-4.31,11.15-7.63,13.61-1.17-1.81-2-4.22-2.36-6.92-.16-1.36-.29-2.74-.11-4.25.16-1.5.46-3.03.9-4.56,1.76-6.11,5.36-10.44,9.06-12.34Z"/>
  <path class="cls-2" d="M49.82,239.34c.35,1.23.82,2.51,1.54,3.77.76,1.24,1.68,2.48,2.74,3.67,2.11,2.38,4.74,4.56,7.72,6.23,6.29,3.21,12.26,3.49,16.03,1.82-.94-2.01-2.57-4.05-4.75-5.99-1.99-2.02-4.53-3.94-7.49-5.62-6.04-3.3-11.74-4.93-15.78-3.88h0Z"/>
  <path class="cls-2" d="M94.71,226.79c.22.88.26,1.88.25,2.95.04,1.05-.04,2.18-.26,3.39-.42,2.41-1.35,5.1-2.75,7.91-2.48,5.49-6.2,10.07-9.93,11.87-.86-1.98-1.27-4.48-1.16-7.17.3-2.77,1.13-5.73,2.52-8.53,2.67-5.6,7.38-9.27,11.33-10.42Z"/>
  <path class="cls-2" d="M44.39,208.76c.29,2.54,1.01,5.4,2.69,8.13,1.66,2.73,3.89,5.37,6.54,7.57,1.33,1.1,2.67,2.02,4.01,2.76,1.41.73,2.8,1.28,4.14,1.66,2.68.77,5.14.89,7.16.43-1.37-4.24-4.52-9.32-9.87-13.72-1.35-1.1-2.64-2.09-3.88-2.96-1.27-.87-2.54-1.61-3.8-2.2-2.51-1.19-4.92-1.8-6.98-1.67h0Z"/>
  <path class="cls-2" d="M90.84,204.99c.17,1.81-.49,3.95-1.31,6.23-.82,2.27-2.19,4.73-4.06,7.22-.93,1.24-1.93,2.41-2.96,3.49-.96,1.06-1.95,2.02-2.97,2.86-2.04,1.69-4.16,2.91-6.16,3.43-1.22-4.15.63-10.21,4.27-15.15.89-1.24,1.96-2.35,3.1-3.32,1.12-.97,2.27-1.79,3.42-2.46,2.3-1.35,4.61-2.11,6.67-2.3h0Z"/>
  <path class="cls-2" d="M44.83,177.75c-.22,2.54.15,5.5,1.09,8.47,1.01,2.99,2.85,6,5.04,8.66,2.22,2.66,4.66,4.62,7.05,5.89,2.47,1.27,4.9,1.85,6.97,1.78-.31-2.21-.75-4.72-1.99-7.33-1.16-2.61-2.97-5.36-5.08-8.01-4.01-5.28-8.97-8.93-13.08-9.47h0Z"/>
  <path class="cls-2" d="M70.81,152.42c-1.94,1.65-3.75,4.02-5.18,6.79-1.38,2.83-2.2,6.27-2.51,9.7-.29,3.46.06,6.56.87,9.15.86,2.64,2.19,4.76,3.7,6.17,1.34-1.79,2.79-3.88,3.74-6.62,1.01-2.67,1.65-5.9,2.02-9.27.86-6.57-.1-12.66-2.64-15.93h0Z"/>
  <path class="cls-2" d="M91.15,182.81c-.2,1.82-1.05,3.82-2.47,5.89-1.35,2.08-3.01,4.24-5.31,6.33-2.26,2.09-4.73,3.84-7.14,5.11-2.33,1.27-4.61,2.06-6.68,2.19-.24-2.14.62-4.63,1.79-7.09,1.25-2.46,2.95-4.9,5.3-6.98,4.92-4.18,10.39-5.86,14.51-5.46h0Z"/>
  <path class="cls-2" d="M225.36,362.71l-6.92,7.06s-22.78-28.93-58.79-42.51c0,0,39.6,8.18,65.71,35.45Z"/>
  <path class="cls-2" d="M19.31,467.61c3.12-.42,5.86-1.4,8.21-2.94,2.36-1.53,4.33-3.57,5.92-6.12,1.59-2.55,2.81-5.62,3.64-9.24.83-3.61,1.25-7.68,1.25-12.23,0-5.92-.76-10.8-2.32-14.69-1.56-3.89-3.84-6.8-6.84-8.72-3-1.92-6.69-2.89-11.06-2.86-.18,0-.26,0-.44.01l-.04,56.9c.67-.05,1-.07,1.68-.11h0ZM1.57,482.81c-.49-4.21-.74-6.33-1.23-10.56,2.29-.98,3.44-1.47,5.73-2.43,0-19.93.01-39.86.02-59.79-2.23-.33-3.34-.5-5.57-.85v-10.77c6.3,0,9.45,0,15.75,0,6.43.45,12.79,1.21,18.45,4.29,4.6,2.5,9.49,7.68,11.71,12.47,2.95,6.38,4.06,13.74,4.03,20.77-.02,7.29-1.07,14.83-3.44,21.68-1.82,5.26-5.93,11.34-10.18,14.89-4.84,4.04-10.73,5.81-16.83,7.27-6.15.99-12.29,2-18.43,3.04h0Z"/>
  <path class="cls-2" d="M56.93,474.52c-.49-3.86-.73-5.79-1.22-9.67,2.48-.85,3.72-1.27,6.19-2.1.04-17.88.07-35.77.1-53.66-2.41-.26-3.61-.39-6.01-.67,0-4.02,0-6.03.02-10.04,7.67,0,15.34,0,23.01,0,.52,3.96.78,5.94,1.31,9.88-2.69.55-4.04.83-6.73,1.39l-.11,52.26c2.62.26,3.93.39,6.54.66-.04,3.7-.06,5.55-.11,9.26-7.67.82-15.34,1.73-22.99,2.69h0Z"/>
  <path class="cls-2" d="M104.33,435.71c.32-.01.48-.02.8-.04,4.6-.28,8.09-1.02,10.45-2.23,2.36-1.21,3.97-2.85,4.83-4.93.86-2.08,1.29-4.49,1.3-7.25,0-3.76-.99-6.73-2.99-8.93-2-2.19-5.16-3.28-9.46-3.22-1.94.02-2.92.04-4.87.06-.02,8.85-.04,17.69-.06,26.54ZM87.71,471.01c-.49-3.57-.73-5.35-1.22-8.93,2.48-.81,3.72-1.21,6.2-2,.04-17.16.08-34.32.11-51.47-2.41-.26-3.61-.39-6.02-.65,0-3.83.01-5.75.02-9.58,7.38,0,14.75,0,22.13,0,4.19,0,7.85.54,10.97,1.61,3.12,1.07,5.72,2.61,7.78,4.6,2.06,1.99,3.61,4.39,4.63,7.21,1.03,2.81,1.54,5.98,1.53,9.49,0,4.72-.95,8.88-2.81,12.5-1.87,3.63-4.68,6.52-8.43,8.71-3.75,2.19-8.46,3.45-14.13,3.77-1.67.1-2.5.14-4.16.24-.01,4.81-.02,7.22-.03,12.04,5.38.55,8.07.82,13.45,1.39-.22,3.38-.33,5.06-.55,8.44-9.84.79-19.66,1.66-29.48,2.63h0Z"/>
  <path class="cls-2" d="M139.25,466.88c-.49-3.46-.74-5.19-1.22-8.66,2.3-.64,3.46-.95,5.76-1.57.03-16.27.06-32.53.08-48.8-2.23-.26-3.35-.39-5.57-.65,0-3.53,0-5.3.02-8.83,7.49,0,14.98,0,22.47,0,.53,3.55.79,5.33,1.32,8.87-2.66.56-3.99.84-6.64,1.41-.02,15.7-.05,31.4-.07,47.11,5.99-.23,8.98-.33,14.97-.5,1.31-3.88,1.97-5.82,3.29-9.69,2.8-.06,4.2-.09,7-.14-.63,6.59-1.25,13.18-1.88,19.76-13.18.39-26.35.95-39.52,1.69h0Z"/>
  <path class="cls-2" d="M210.06,455.05c2.07,0,3.94-.59,5.63-1.77,1.68-1.18,3.12-2.82,4.3-4.93,1.18-2.11,2.1-4.57,2.74-7.39.65-2.82.97-5.86.97-9.13,0-3.27-.33-6.33-.98-9.19-.65-2.86-1.57-5.36-2.75-7.51-1.18-2.15-2.61-3.83-4.29-5.05-1.68-1.22-3.56-1.83-5.62-1.83s-4.03.61-5.71,1.83c-1.68,1.22-3.11,2.91-4.29,5.05-1.18,2.15-2.1,4.65-2.75,7.51-.65,2.86-.98,5.92-.98,9.2,0,3.27.32,6.32.97,9.13.65,2.82,1.57,5.28,2.74,7.39,1.18,2.11,2.62,3.75,4.3,4.93,1.68,1.18,3.59,1.76,5.71,1.76h0ZM210.06,465.14c-4.2,0-7.91-.79-11.13-2.39-3.22-1.6-5.92-3.89-8.1-6.88-2.18-2.99-3.84-6.53-4.96-10.63-1.12-4.1-1.68-8.6-1.67-13.49,0-4.95.57-9.48,1.69-13.57,1.12-4.09,2.78-7.63,4.96-10.62,2.19-2.99,4.89-5.3,8.1-6.94,3.22-1.64,6.92-2.45,11.1-2.45s7.88.82,11.06,2.45c3.18,1.63,5.87,3.95,8.05,6.93,2.19,2.99,3.84,6.53,4.97,10.61,1.12,4.08,1.69,8.61,1.69,13.56,0,4.89-.55,9.38-1.67,13.48-1.12,4.1-2.77,7.64-4.96,10.63-2.18,2.99-4.87,5.28-8.06,6.89-3.19,1.61-6.89,2.41-11.08,2.41h0Z"/>
  <path class="cls-2" d="M242.86,465.15c-.21-3.37-.32-5.05-.54-8.42,2.09-.26,3.14-.39,5.23-.65-.02-16.01-.03-32.03-.05-48.04-1.95-.24-2.92-.36-4.87-.6,0-3.63,0-5.45,0-9.09,7.58,0,15.16,0,22.74,0,4.3,16.87,8.58,33.75,12.83,50.64,4.29-16.87,8.54-33.75,12.74-50.64,7.05,0,14.1,0,21.15,0,.54,3.8.81,5.7,1.35,9.51-1.95.47-2.92.7-4.87,1.17.04,16.67.07,33.35.11,50.02,1.81.41,2.71.62,4.52,1.03,0,3.56.01,5.34.02,8.89-6.26-.5-12.52-.98-18.78-1.42-.32-3.63-.49-5.44-.81-9.06,1.56-.43,2.33-.64,3.89-1.07-.03-16.54-.07-33.08-.1-49.62-4.83,19.26-9.73,38.5-14.68,57.73-4.75-.27-7.12-.4-11.87-.62-4.8-18.92-9.64-37.83-14.52-56.73.02,15.95.04,31.91.06,47.86,1.63.48,2.45.72,4.08,1.21.04,3.39.06,5.09.1,8.49-5.91-.24-11.82-.44-17.73-.58h0Z"/>
  <path class="cls-2" d="M337.75,437.2c4.28.24,6.43.36,10.71.62-1.57-8.11-3.15-16.22-4.74-24.33-1.98,7.91-3.96,15.81-5.96,23.71ZM318.35,469.42c-.47-3.25-.7-4.87-1.17-8.11,1.95-.59,2.92-.88,4.87-1.48,5.91-20.46,11.7-40.94,17.39-61.46,4.39,0,6.58,0,10.98,0,6.12,21.9,12.09,43.84,17.91,65.83,1.63.98,2.44,1.47,4.07,2.46-.35,3.43-.52,5.15-.87,8.57-7.65-1.01-15.32-1.94-22.99-2.8,0-3.22-.01-4.82-.02-8.04,2.83-.62,4.24-.93,7.07-1.55-1.28-5.42-1.93-8.11-3.21-13.47-5.78-.46-11.56-.89-17.34-1.29-1.33,5.21-2,7.79-3.33,12.95,3.12.94,4.67,1.41,7.79,2.38,0,3.22.01,4.82.02,8.04-7.05-.74-14.1-1.42-21.15-2.04h0Z"/>
  <path class="cls-2" d="M381.23,476.55c-.36-3.67-.54-5.5-.9-9.16,4.06-.49,6.09-.74,10.16-1.25l-.07-55.68c-4-.09-6-.13-10-.22-1.51,4.49-2.27,6.71-3.79,11.14-2.73-.11-4.09-.17-6.81-.27.55-7.58,1.1-15.16,1.64-22.74,16.37,0,32.75.01,49.12.02.65,8.33,1.3,16.65,1.95,24.98-2.69-.14-4.03-.21-6.72-.34-1.56-4.86-2.34-7.27-3.89-12.06-4.03-.1-6.05-.15-10.09-.25.02,18.96.03,37.92.05,56.88,4.1,1.58,6.14,2.39,10.24,4.04-.35,3.79-.53,5.67-.88,9.45-9.99-1.62-19.99-3.13-30.01-4.56h0Z"/>
  <path class="cls-2" d="M55.32,531.52c-2.03,0-3.83-.41-5.41-1.23-1.58-.82-2.82-1.98-3.72-3.48-.9-1.5-1.35-3.24-1.35-5.24v-20.54l-2.8-.19v-2.9h8.55l.19,2.71-2.66.39v20.01c0,2.29.66,4.07,1.98,5.34,1.32,1.27,3.16,1.91,5.51,1.91,1.35,0,2.59-.24,3.72-.72,1.13-.48,2.04-1.26,2.73-2.32.69-1.06,1.04-2.47,1.04-4.21v-20.01l-2.75-.19v-2.9h8.22l.19,2.71-2.66.39v20.54c0,2.09-.48,3.89-1.45,5.39-.97,1.5-2.27,2.63-3.89,3.41-1.63.77-3.44,1.16-5.44,1.16h0Z"/>
  <path class="cls-2" d="M84.17,531.33l-.39-2.71,2.8-.58v-27.01l-2.8-.24v-2.85h8.07l13.05,29.77v-26.58l-3.1-.48v-2.71h8.6l.48,2.71-2.95.58v30.11h-5.08l-13.29-30.4v27.21l3.24.48v2.71h-8.65Z"/>
  <path class="cls-2" d="M126.65,531.33l-.19-2.71,2.61-.39v-27.21l-2.75-.19v-2.9h8.51l.19,2.71-2.61.39v27.21l2.76.19v2.9h-8.51Z"/>
  <path class="cls-2" d="M160.38,531.33l-9.81-30.25-1.74-.87v-2.27h9.52v2.12l-4.25,1.02,8.07,24.89,8.26-25.03-4.4-.82v-2.18h9.47v2.27l-1.93.87-10.05,30.25h-3.14Z"/>
  <path class="cls-2" d="M189.23,531.33l-.34-2.71,2.75-.58v-27.01l-2.75-.24v-2.85h19.23l.97,8.26h-2.32l-1.64-4.98h-10.15v11.89h7.83v3.04h-7.83v11.89h10.63l1.69-4.98h2.27l-.92,8.26h-19.43Z"/>
  <path class="cls-2" d="M230.89,515.29h2.61c1.61,0,3.1-.2,4.47-.6,1.37-.4,2.48-1.13,3.34-2.18.85-1.05,1.28-2.5,1.28-4.37,0-1.64-.35-2.97-1.06-3.99-.71-1.02-1.68-1.76-2.9-2.22-1.23-.47-2.61-.7-4.16-.7h-3.57v14.06h0ZM225.13,531.33l-.34-2.66,2.75-.63v-27.01l-2.75-.24v-2.85h8.41c2.48,0,4.69.36,6.62,1.07,1.93.71,3.45,1.81,4.54,3.31,1.1,1.5,1.64,3.42,1.64,5.78,0,2.61-.7,4.69-2.1,6.26-1.4,1.56-3.13,2.68-5.19,3.36l4.93,10.49,3.14.68v2.46h-5.71l-5.8-12.85c-.61.03-1.24.05-1.89.07-.64.02-1.48.02-2.51.02v9.37l3.77.92v2.46h-9.52Z"/>
  <path class="cls-2" d="M270.32,531.52c-1.38,0-2.78-.12-4.18-.36-1.4-.24-2.71-.65-3.94-1.23l-.53-7.44h2.8l1.31,4.78c.61.29,1.34.53,2.2.7.85.18,1.63.27,2.34.27,1.13,0,2.22-.2,3.26-.61,1.05-.4,1.91-1.02,2.59-1.86.68-.84,1.01-1.9,1.01-3.19,0-.84-.12-1.6-.36-2.29-.24-.69-.66-1.34-1.26-1.93-.6-.6-1.44-1.17-2.54-1.72-1.29-.64-2.59-1.24-3.92-1.81-1.32-.56-2.54-1.21-3.67-1.96-1.13-.74-2.04-1.64-2.73-2.71-.69-1.06-1.04-2.38-1.04-3.96,0-1.71.45-3.18,1.35-4.42.9-1.24,2.1-2.19,3.6-2.85,1.5-.66,3.12-.99,4.86-.99,1.35,0,2.63.14,3.84.43,1.21.29,2.41.66,3.6,1.11l.63,7.44h-2.66l-2.03-5.12c-.61-.26-1.22-.43-1.83-.51-.61-.08-1.26-.12-1.93-.12-.97,0-1.91.17-2.83.51-.92.34-1.67.85-2.27,1.55-.6.69-.9,1.56-.9,2.58s.25,1.97.75,2.71c.5.74,1.16,1.36,1.98,1.86.82.5,1.72.95,2.68,1.36.97.4,1.92.81,2.85,1.23,1.96.9,3.46,1.85,4.49,2.85,1.03,1,1.75,2.03,2.15,3.09.4,1.06.6,2.16.6,3.29,0,1.48-.27,2.79-.82,3.94-.55,1.15-1.3,2.12-2.27,2.92-.97.8-2.07,1.42-3.31,1.84-1.24.42-2.54.63-3.89.63h0Z"/>
  <path class="cls-2" d="M296.41,531.33l-.19-2.71,2.61-.39v-27.21l-2.75-.19v-2.9h8.5l.19,2.71-2.61.39v27.21l2.75.19v2.9h-8.5Z"/>
  <path class="cls-2" d="M324.35,531.33v-2.51l5.46-.87v-26.72h-6.62l-1.88,4.69h-2.22l1.11-7.97h22.47l1.11,7.97h-2.22l-1.89-4.69h-6.57v26.72l5.55.87v2.51h-14.3Z"/>
  <path class="cls-2" d="M361.6,531.33l-.49-2.51,5.61-.87v-9.04l-9.04-17.64-2.08-.43v-2.9h8.8v2.56l-3.05.49,7.35,14.4,6.77-14.45-2.95-.38v-2.61h8.31v2.9l-2.08.48-8.75,18.26v8.36l5.56.87-.43,2.51h-13.53Z"/>
</svg>